name ./resultDataOpenSim/trcMotMarkerGrf/sub10/grf-03-03.mot
datacolumns 19
datarows 17
range 1.05600000 1.12000000
endheader

                time	     ground_force_vx	     ground_force_vy	     ground_force_vz	     ground_force_px	     ground_force_py	     ground_force_pz	   l_ground_force_vx	   l_ground_force_vy	   l_ground_force_vz	   l_ground_force_px	   l_ground_force_py	   l_ground_force_pz	     ground_torque_x	     ground_torque_y	     ground_torque_z	   l_ground_torque_x	   l_ground_torque_y	   l_ground_torque_z	
          1.05600000	          0.00000000	          0.00000000	          0.00000000	          0.00000000	          0.00000000	          0.00000000	         33.95065059	        459.02813553	         15.64859524	          0.03961285	         -0.05000000	         -0.07907087	          0.00000000	          0.00000000	          0.00000000	          0.00000000	         -6.16314033	          0.00000000	
          1.06000000	          0.00000000	          0.00000000	          0.00000000	          0.00000000	          0.00000000	          0.00000000	         35.53514814	        480.02847510	         15.70121955	          0.03973866	         -0.05000000	         -0.07876148	          0.00000000	          0.00000000	          0.00000000	          0.00000000	         -6.52775212	          0.00000000	
          1.06400000	          0.00000000	          0.00000000	          0.00000000	          0.00000000	          0.00000000	          0.00000000	         37.47058374	        501.78960475	         15.87965424	          0.03989039	         -0.05000000	         -0.07843798	          0.00000000	          0.00000000	          0.00000000	          0.00000000	         -6.88368027	          0.00000000	
          1.06800000	          0.00000000	          0.00000000	          0.00000000	          0.00000000	          0.00000000	          0.00000000	         39.85980849	        524.27687030	         16.21325999	          0.04004297	         -0.05000000	         -0.07811614	          0.00000000	          0.00000000	          0.00000000	          0.00000000	         -7.22902581	          0.00000000	
          1.07200000	          0.00000000	          0.00000000	          0.00000000	          0.00000000	          0.00000000	          0.00000000	         42.75396248	        547.40650428	         16.73572760	          0.04012748	         -0.05000000	         -0.07783422	          0.00000000	          0.00000000	          0.00000000	          0.00000000	         -7.56165545	          0.00000000	
          1.07600000	          0.00000000	          0.00000000	          0.00000000	          0.00000000	          0.00000000	          0.00000000	         46.16515311	        571.03995680	         17.46639394	          0.04010696	         -0.05000000	         -0.07761596	          0.00000000	          0.00000000	          0.00000000	          0.00000000	         -7.87950771	          0.00000000	
          1.08000000	          0.00000000	          0.00000000	          0.00000000	          0.00000000	          0.00000000	          0.00000000	         50.08616101	        594.99446365	         18.39886072	          0.04002220	         -0.05000000	         -0.07744710	          0.00000000	          0.00000000	          0.00000000	          0.00000000	         -8.18089570	          0.00000000	
          1.08400000	          0.00000000	          0.00000000	          0.00000000	          0.00000000	          0.00000000	          0.00000000	         54.49506153	        619.09552094	         19.51764767	          0.03993838	         -0.05000000	         -0.07728812	          0.00000000	          0.00000000	          0.00000000	          0.00000000	         -8.46461199	          0.00000000	
          1.08800000	          0.00000000	          0.00000000	          0.00000000	          0.00000000	          0.00000000	          0.00000000	         59.36541637	        643.22891444	         20.81981256	          0.03988536	         -0.05000000	         -0.07711425	          0.00000000	          0.00000000	          0.00000000	          0.00000000	         -8.72980457	          0.00000000	
          1.09200000	          0.00000000	          0.00000000	          0.00000000	          0.00000000	          0.00000000	          0.00000000	         64.68742943	        667.35849890	         22.31305998	          0.03988803	         -0.05000000	         -0.07691957	          0.00000000	          0.00000000	          0.00000000	          0.00000000	         -8.97574161	          0.00000000	
          1.09600000	          0.00000000	          0.00000000	          0.00000000	          0.00000000	          0.00000000	          0.00000000	         70.46494387	        691.49444346	         23.99184859	          0.03996494	         -0.05000000	         -0.07670101	          0.00000000	          0.00000000	          0.00000000	          0.00000000	         -9.20166895	          0.00000000	
          1.10000000	          0.00000000	          0.00000000	          0.00000000	          0.00000000	          0.00000000	          0.00000000	         76.68421040	        715.61240038	         25.81047208	          0.04012956	         -0.05000000	         -0.07645867	          0.00000000	          0.00000000	          0.00000000	          0.00000000	         -9.40689177	          0.00000000	
          1.10400000	          0.00000000	          0.00000000	          0.00000000	          0.00000000	          0.00000000	          0.00000000	         83.30113848	        739.60027974	         27.68391175	          0.04039575	         -0.05000000	         -0.07620045	          0.00000000	          0.00000000	          0.00000000	          0.00000000	         -9.59097553	          0.00000000	
          1.10800000	          0.00000000	          0.00000000	          0.00000000	          0.00000000	          0.00000000	          0.00000000	         90.25796652	        763.28307025	         29.52118228	          0.04072980	         -0.05000000	         -0.07593420	          0.00000000	          0.00000000	          0.00000000	          0.00000000	         -9.75381582	          0.00000000	
          1.11200000	          0.00000000	          0.00000000	          0.00000000	          0.00000000	          0.00000000	          0.00000000	         97.50241339	        786.46775803	         31.25313296	          0.04110855	         -0.05000000	         -0.07565807	          0.00000000	          0.00000000	          0.00000000	          0.00000000	         -9.89546399	          0.00000000	
          1.11600000	          0.00000000	          0.00000000	          0.00000000	          0.00000000	          0.00000000	          0.00000000	        104.99865062	        808.97446238	         32.83348999	          0.04153189	         -0.05000000	         -0.07536187	          0.00000000	          0.00000000	          0.00000000	          0.00000000	        -10.01581557	          0.00000000	
          1.12000000	          0.00000000	          0.00000000	          0.00000000	          0.00000000	          0.00000000	          0.00000000	        112.72567319	        830.66489707	         34.22435328	          0.04198222	         -0.05000000	         -0.07503668	          0.00000000	          0.00000000	          0.00000000	          0.00000000	        -10.11430563	          0.00000000	
